<svg xmlns="http://www.w3.org/2000/svg" id="Layer_1" data-name="Layer 1" viewBox="0 0 1000 1000">
  <link type="text/css" rel="stylesheet" id="dark-mode-custom-link"/>
  <defs/>
  <path class="cls-2" d="M319.56 83.7v81.78h30.15v-11.22h-16.4V83.7h-13.75zM357.19 83.7h13.74v81.77h-13.74zM379.97 165.48h13.74v-36.07h13.75v-11.09h-13.75v-23.4h18.43V83.7h-32.17v81.78zM419.39 165.48h32.78v-11.22h-19.04v-24.85h13.63v-11.09h-13.63v-23.4h19.04V83.7h-32.78v81.78zM73.22 120.29v35.38h.3l23.78-24.68h.31v154.34h33.89V83.7h-27.06l-31.22 36.59zM212.1 147.65c-13.38 0-23.19 4.75-28.55 14h-.3v-50.29h58.29V83.72h-89.21v113.6h30.92v-4.48c0-11.88 5.35-18.43 14.86-18.43 10.42 0 14.59 7.14 14.59 18.15v48.77c0 10.69-3.87 18.13-14.28 18.13-11.59 0-15.74-7.73-15.74-19.63v-25.27h-31v22.91c0 30.62 12.19 50.24 46.69 50.24 34.2 0 48.17-18.14 48.17-46.09v-49.37c0-31.82-16.35-44.6-34.49-44.6M319.5 264.32v-39.39c0-12.74 6.25-22 20.67-22s20.78 9.25 20.78 22v39.39c0 12.62-6.24 22-20.78 22s-20.67-9.37-20.67-22m27.75 2.16v-43.72c0-4.93-2.16-8.41-7.08-8.41s-7 3.48-7 8.41v43.72c0 4.93 2.16 8.42 7 8.42s7.08-3.49 7.08-8.42M380.24 234.18v51.16h-11.53V203.9h13.46l14.77 46.72V203.9h11.41v81.44h-12l-16.11-51.16zM438.04 203.9h13.69v70.27h16.35v11.17h-30.04V203.9zM472.11 285.34l15.38-81.44h15.62l15.5 81.44h-14.06L502 270.45h-14.51l-2.39 14.89zm17.19-25.82h10.93l-5.41-32.67h-.12zM535.74 234.18v51.16H524.2V203.9h13.46l14.77 46.72V203.9h11.41v81.44h-12l-16.1-51.16zM613.69 225.77v37.72c0 12.48-5.16 21.85-19.82 21.85h-21.14V203.9h21.14c14.66 0 19.82 9.25 19.82 21.87m-21.5 48.4c5.63 0 7.81-3.36 7.81-8.28v-42.65c0-4.81-2.18-8.17-7.81-8.17h-5.77v59.1zM419.19 676.12a2.21 2.21 0 012.21 2.21v72.82a2.2 2.2 0 01-2.21 2.21h-29.46a2.21 2.21 0 01-2.22-2.21v-72.82a2.21 2.21 0 012.22-2.21zM742.8 784.62H257.19a2.28 2.28 0 00-2.22 2.29v29.68a2.21 2.21 0 002.22 2.18H742.8a2.24 2.24 0 002.23-2.18v-29.68a2.3 2.3 0 00-2.23-2.29M742.8 843.61H257.19a2.22 2.22 0 00-2.19 2.19v29.77a2.23 2.23 0 002.22 2.19H742.8a2.25 2.25 0 002.23-2.19V845.8a2.24 2.24 0 00-2.23-2.19M650.39 595.52c-6.06-4.75-22.26-15.83-42-15.83-14.12 0-27.25 5.56-39 16.57a4.19 4.19 0 00-1.3 3V602a4.19 4.19 0 001.39 3.32 3.88 3.88 0 003.42.8 5.28 5.28 0 00.91-.23 6.7 6.7 0 002.43-1.54c2.54-1.71 9.5-4 19.45-4 10.28 0 30.5 2.76 50 21l.45.4a5.87 5.87 0 004.22 1.76 5.72 5.72 0 004.11-1.72l.4-.41c19.64-18.24 39.82-21 50.1-21 10 0 17 2.34 19.5 4a7.21 7.21 0 002.69 1.64A5.93 5.93 0 00730 606a4.16 4.16 0 003.06-4v-2.34a4.22 4.22 0 00-1.3-3c-11.86-11.3-25.13-17-39.47-17-19.57 0-35.69 10.91-41.93 15.85M620.26 402a4.07 4.07 0 00-2.12 2.56l-.49 1.62a4.11 4.11 0 00.64 3.65 4 4 0 003 1.64 1.59 1.59 0 00.61 0 5.15 5.15 0 002.34-.6 12.21 12.21 0 013-.33c2.17 0 21.75.66 34.69 22.66l.17.32a4.94 4.94 0 003.1 2.48 5.91 5.91 0 001.55.24 5.25 5.25 0 002.45-.6l.32-.16a48.39 48.39 0 0121.66-5.36c12.27 0 20.28 5 22.15 7.09a5.6 5.6 0 001.57 1.79 11.43 11.43 0 001.58.76 3.29 3.29 0 00.72.1 2 2 0 00.43 0 4.21 4.21 0 001.93-.48 4.1 4.1 0 002.06-2.49l.41-1.43a3.74 3.74 0 00.17-1.18 4 4 0 00-.57-2.09c-9.43-16.37-23.11-19.79-32.94-19.79a51.65 51.65 0 00-17.48 3.28c-4.44-6-15.69-18.35-32.75-18.35a40.46 40.46 0 00-18.2 4.6M517.65 476.69l.14 2.19a4.15 4.15 0 005.21 3.76 5.33 5.33 0 00.71-.22 5.41 5.41 0 002.1-1.55c2.06-1.49 8.71-4.21 18.52-4.21 9.43 0 23.77 2.52 38.39 14.53l.34.35a5.78 5.78 0 003.75 1.41h.36a5.69 5.69 0 003.81-1.83l.32-.37c16.19-17.13 33.62-19.67 42.57-19.67 6.38 0 10.9 1.31 12.66 2.31a6.46 6.46 0 002.53 1.31 4.86 4.86 0 002.8-.13 4.14 4.14 0 002.75-4.17l-.11-1.9a4.11 4.11 0 00-1.46-2.89c-9.66-8.13-20.09-12.22-31.06-12.22-17.08 0-30.71 10.08-36.35 15-5.16-3.52-17.7-10.76-32.4-10.76-12.92 0-24.5 5.37-34.45 15.92a4.3 4.3 0 00-1.13 3.11M271.91 515.67A52.65 52.65 0 01324.56 463c1.14 0 2.25.1 3.37.17a71.19 71.19 0 11135 36.44 79.58 79.58 0 01-17.28 157.29c-3.21 0-106.23-.62-106.23-.62a56.29 56.29 0 01-41-94.95 52.59 52.59 0 01-26.51-45.66z"/>
</svg>
