<?xml version="1.0" standalone="no"?>
<!DOCTYPE svg PUBLIC "-//W3C//DTD SVG 20010904//EN"
 "http://www.w3.org/TR/2001/REC-SVG-20010904/DTD/svg10.dtd">
<svg version="1.0" xmlns="http://www.w3.org/2000/svg"
 width="945.000000pt" height="945.000000pt" viewBox="0 0 945.000000 945.000000"
 preserveAspectRatio="xMidYMid meet">
<metadata>
Created by potrace 1.11, written by Peter Selinger 2001-2013
</metadata>
<g transform="translate(0.000000,945.000000) scale(0.100000,-0.100000)"
fill="#000000" stroke="none">
<path d="M340 9434 c-156 -42 -294 -193 -329 -362 -16 -75 -16 -8619 0 -8694
26 -124 115 -252 220 -315 115 -69 -283 -63 4520 -61 l4345 3 80 39 c143 71
240 203 264 361 7 49 10 1353 8 4365 l-3 4295 -21 56 c-60 164 -175 275 -328
315 -80 21 -8676 19 -8756 -2z m2685 -4399 l0 -1980 -1255 0 -1255 0 -3 1970
c-1 1084 0 1976 3 1983 3 10 260 12 1257 10 l1253 -3 0 -1980z m893 1947 c97
-27 162 -62 190 -103 20 -29 23 -42 19 -87 -7 -63 -38 -122 -145 -271 -85
-120 -144 -186 -186 -208 -43 -22 -114 -19 -167 7 -57 29 -146 121 -182 187
-32 60 -67 188 -67 247 0 116 72 205 200 247 43 15 259 2 338 -19z m4824 -165
c51 -21 63 -48 42 -92 -21 -44 -50 -70 -219 -190 -372 -264 -649 -527 -888
-842 -394 -521 -640 -1151 -718 -1841 -15 -138 -24 -148 -117 -139 -134 14
-335 153 -392 271 -23 48 -23 51 -16 275 12 410 35 840 72 1346 6 79 4 97 -14
138 -39 88 -109 71 -230 -57 -218 -230 -452 -675 -684 -1295 -87 -233 -117
-291 -198 -371 -93 -94 -155 -110 -248 -64 -95 47 -164 159 -182 295 -5 40
-10 312 -10 602 0 345 -4 535 -10 548 -81 150 -596 -522 -979 -1280 -72 -142
-147 -279 -166 -304 -89 -116 -187 -102 -339 49 -79 79 -89 99 -108 209 -19
117 -16 742 6 1050 34 480 69 774 96 808 23 28 102 28 184 -2 79 -28 122 -59
143 -101 16 -33 15 -45 -16 -275 -84 -621 -116 -918 -105 -974 8 -39 27 -55
57 -47 32 8 153 133 348 361 351 410 536 607 703 751 119 102 159 145 253 274
57 77 104 104 180 104 57 0 90 -17 127 -68 29 -38 33 -178 12 -417 -9 -101
-19 -243 -23 -315 l-6 -130 29 -27 c16 -15 38 -27 49 -27 54 0 143 94 263 278
37 56 91 139 121 185 182 278 382 476 576 568 112 54 192 72 290 67 129 -7
191 -50 236 -165 21 -53 23 -73 22 -223 -1 -128 -7 -195 -26 -300 -22 -119
-23 -138 -11 -157 35 -55 112 -15 192 97 251 357 378 513 611 753 174 178 329
319 501 454 178 139 304 223 352 233 60 13 196 5 240 -13z m-1754 -3374 c113
-53 139 -250 46 -353 -43 -47 -89 -64 -159 -58 -103 9 -169 93 -168 213 1 170
137 266 281 198z m-3543 -198 l0 -210 -25 0 -25 0 -3 213 -2 213 27 -3 28 -3
0 -210z m288 113 c36 -57 83 -134 105 -171 l40 -68 -1 168 -2 168 25 0 25 0 0
-210 0 -210 -25 -3 c-26 -3 -52 34 -221 313 -19 30 -19 29 -19 -142 l0 -173
-25 0 -25 0 0 215 0 215 28 0 c26 0 37 -12 95 -102z m617 77 c0 -24 -3 -25
-60 -25 l-60 0 -2 -187 -3 -188 -27 -3 -28 -3 0 190 0 191 -65 0 c-63 0 -65 1
-65 25 l0 25 155 0 155 0 0 -25z m350 0 c0 -25 -1 -25 -85 -25 l-85 0 0 -65 0
-65 80 0 c79 0 80 0 80 -25 0 -25 -1 -25 -80 -25 l-80 0 0 -75 0 -75 91 0 c88
0 90 -1 87 -22 -3 -22 -7 -23 -120 -26 l-118 -3 0 216 0 215 115 0 115 0 0
-25z m333 11 c51 -21 72 -52 72 -103 0 -39 -5 -49 -37 -79 -21 -19 -33 -34
-28 -34 17 0 42 -48 61 -122 10 -40 19 -74 19 -76 0 -2 -12 -2 -27 0 -28 3
-38 23 -57 109 -11 49 -38 72 -87 73 l-44 1 -3 -92 c-3 -91 -3 -93 -27 -93
l-25 0 0 209 c0 158 3 211 13 214 26 11 139 6 170 -7z m333 -73 c31 -49 79
-126 105 -173 l49 -84 0 172 0 172 25 0 25 0 0 -210 c0 -186 -2 -211 -16 -217
-9 -3 -24 -2 -32 4 -16 10 -152 219 -197 303 l-24 45 -1 -178 0 -178 -22 3
c-23 3 -23 4 -26 216 l-2 212 29 0 c26 0 36 -10 87 -87z m613 -120 c39 -115
71 -212 71 -216 0 -5 -12 -7 -27 -5 -25 3 -31 11 -52 71 l-23 67 -73 0 -73 0
-22 -66 c-22 -65 -37 -81 -64 -71 -12 5 -1 47 56 216 l70 211 33 0 32 0 72
-207z m416 182 c0 -18 -8 -20 -62 -23 l-63 -3 -2 -187 -3 -187 -25 0 -25 0 -3
188 -2 187 -60 0 c-60 0 -76 9 -66 36 5 12 31 14 158 12 145 -3 153 -4 153
-23z m170 -190 l0 -210 -25 0 -25 0 -3 213 -2 213 27 -3 28 -3 0 -210z m788
113 c36 -57 83 -133 105 -171 l39 -67 -1 167 -1 168 25 0 25 0 3 -204 c1 -120
-2 -209 -7 -214 -5 -5 -20 -7 -33 -3 -21 6 -51 50 -203 301 l-24 40 -1 -172 0
-173 -25 0 -25 0 0 215 0 215 29 0 c26 0 36 -11 94 -102z m605 -108 c61 -181
69 -212 55 -217 -27 -11 -47 11 -67 76 l-20 62 -75 -3 -74 -3 -22 -65 c-19
-56 -25 -65 -48 -68 -15 -2 -27 1 -27 6 0 5 32 101 70 212 39 111 70 204 70
206 0 2 15 4 33 4 l33 0 72 -210z m260 18 l2 -188 91 0 c88 0 90 -1 87 -22 -3
-22 -7 -23 -120 -26 l-118 -3 0 216 0 216 28 -3 27 -3 3 -187z m532 167 c0
-25 -1 -25 -85 -25 l-85 0 0 -65 0 -65 80 0 c79 0 80 0 80 -25 0 -25 -1 -25
-80 -25 l-80 0 0 -75 0 -75 90 0 c90 0 90 0 90 -25 l0 -26 -117 3 -118 3 -3
200 c-1 110 0 205 2 212 4 10 35 13 116 13 l110 0 0 -25z m-7566 -630 c70 -34
76 -150 10 -185 l-23 -13 24 -29 c13 -16 27 -45 31 -66 4 -20 13 -54 20 -75
l14 -38 -32 3 c-30 3 -33 6 -49 73 -21 81 -43 105 -100 105 l-39 0 0 -90 0
-90 -30 0 -30 0 0 209 0 210 43 4 c62 6 124 -1 161 -18z m2749 14 c40 -11 40
-10 31 -32 -4 -12 -20 -14 -77 -10 -119 8 -177 -38 -185 -146 -5 -73 10 -123
49 -155 32 -27 100 -42 148 -31 31 7 31 7 31 71 l0 64 -45 0 c-38 0 -45 3 -45
20 0 18 7 20 70 20 l70 0 0 -104 0 -105 -47 -7 c-176 -29 -282 38 -291 181 -2
35 1 79 8 99 35 108 163 169 283 135z m736 0 c71 -15 105 -56 98 -118 -4 -34
-13 -52 -34 -72 -29 -25 -30 -26 -11 -49 16 -20 35 -72 54 -153 6 -27 5 -28
-21 -25 -30 3 -32 8 -55 96 -15 59 -41 82 -90 82 l-39 0 -3 -87 c-3 -88 -3
-88 -30 -91 l-28 -3 0 210 0 210 43 4 c23 2 47 4 54 5 7 1 35 -3 62 -9z m452
-6 c5 -5 7 -17 4 -25 -5 -13 -18 -15 -66 -11 -69 7 -99 -11 -99 -57 0 -32 16
-47 97 -90 86 -45 109 -93 78 -166 -10 -25 -26 -40 -57 -54 -50 -23 -85 -25
-139 -8 -32 9 -39 16 -39 36 0 21 3 23 23 17 12 -4 45 -9 73 -12 44 -5 54 -2
73 18 21 23 26 53 15 84 -4 9 -36 31 -73 49 -86 44 -106 67 -106 121 0 48 21
79 70 102 33 15 129 13 146 -4z m371 -9 c40 -20 61 -68 55 -121 -8 -72 -61
-113 -148 -116 l-49 -2 0 -82 0 -83 -30 0 -30 0 0 209 0 210 38 4 c54 6 133
-3 164 -19z m357 15 c71 -15 105 -56 98 -118 -4 -34 -13 -52 -36 -73 -31 -28
-31 -28 -11 -48 17 -17 36 -67 56 -153 6 -27 5 -28 -21 -25 -30 3 -32 8 -55
96 -15 59 -41 82 -90 82 l-40 0 0 -90 0 -90 -30 0 -30 0 0 209 0 210 38 4 c20
2 45 4 54 5 9 1 40 -3 67 -9z m528 -25 c133 -106 96 -350 -60 -393 -87 -25
-172 9 -214 84 -44 79 -39 188 12 266 54 83 185 104 262 43z m1152 30 c24 -5
31 -12 31 -29 0 -21 -3 -22 -72 -18 -89 5 -132 -14 -162 -73 -44 -84 -17 -207
55 -246 28 -16 47 -19 107 -15 66 5 72 4 72 -14 0 -24 -35 -34 -115 -34 -101
0 -176 63 -195 163 -33 174 101 301 279 266z m-6896 -169 c27 -88 51 -167 54
-175 2 -8 31 63 63 158 32 96 60 176 63 179 3 2 16 3 30 1 l25 -3 -73 -205
-73 -205 -33 0 c-26 0 -34 5 -39 25 -4 14 -35 107 -68 208 l-60 183 31 -3 32
-3 48 -160z m807 -45 l0 -210 -25 0 -25 0 0 210 0 210 25 0 25 0 0 -210z m310
76 c0 -147 -12 -230 -36 -257 -39 -44 -154 -50 -154 -9 0 17 7 20 43 20 80 0
87 18 87 219 l0 161 30 0 30 0 0 -134z m215 -36 c22 -93 41 -168 43 -166 1 2
22 77 45 167 l43 164 30 3 30 3 24 -98 c12 -54 30 -133 39 -176 l17 -77 44
175 43 175 29 0 c15 0 28 -1 28 -3 0 -2 -25 -91 -55 -198 -30 -106 -55 -200
-55 -206 0 -8 -13 -13 -33 -13 l-32 0 -38 163 c-21 89 -38 169 -38 177 0 8
-22 -64 -48 -160 -47 -175 -48 -175 -77 -178 l-30 -3 -49 193 c-27 106 -50
201 -53 211 -3 13 2 17 25 17 l30 0 38 -170z m595 -40 l0 -210 -30 0 -30 0 0
210 0 210 30 0 30 0 0 -210z m210 25 l0 -185 90 0 c89 0 90 0 90 -25 l0 -25
-115 0 -115 0 0 210 0 210 25 0 25 0 0 -185z m370 0 l0 -184 88 -3 c82 -3 87
-4 90 -25 3 -23 2 -23 -117 -23 l-121 0 0 210 0 210 30 0 30 0 0 -185z m360
-25 l0 -210 -30 0 -30 0 0 210 0 210 30 0 30 0 0 -210z m860 190 c0 -18 -7
-20 -85 -20 l-85 0 0 -70 0 -70 80 0 c73 0 80 -2 80 -20 0 -18 -7 -20 -80 -20
l-80 0 0 -75 0 -75 90 0 c89 0 90 0 90 -25 l0 -25 -120 0 -120 0 0 210 0 210
115 0 c108 0 115 -1 115 -20z m2380 -122 c-1 -150 -11 -221 -37 -250 -38 -43
-153 -48 -153 -8 0 17 7 20 43 20 80 0 87 18 87 219 l0 161 30 0 30 0 0 -142z
m380 122 c0 -18 -7 -20 -85 -20 l-85 0 0 -70 0 -70 80 0 c73 0 80 -2 80 -20 0
-18 -7 -20 -80 -20 l-80 0 0 -75 0 -75 90 0 c89 0 90 0 90 -25 l0 -25 -120 0
-120 0 0 210 0 210 115 0 c108 0 115 -1 115 -20z m840 0 c0 -18 -7 -20 -60
-20 l-60 0 0 -190 0 -190 -30 0 -30 0 0 190 0 190 -65 0 c-58 0 -65 2 -65 20
0 19 7 20 155 20 148 0 155 -1 155 -20z m350 0 c0 -18 -7 -20 -85 -20 l-85 0
0 -70 0 -70 80 0 c73 0 80 -2 80 -20 0 -18 -7 -20 -80 -20 l-80 0 0 -75 0 -74
88 -3 c82 -3 87 -4 90 -25 3 -23 2 -23 -117 -23 l-121 0 0 210 0 210 115 0
c108 0 115 -1 115 -20z m293 -117 c46 -76 92 -151 100 -168 15 -28 16 -21 17
138 l0 167 25 0 25 0 0 -210 0 -210 -28 0 c-24 0 -35 13 -92 103 -35 56 -83
135 -106 174 l-41 73 5 -175 5 -175 -32 0 -31 0 0 210 0 210 34 0 c32 0 36 -5
119 -137z m-2878 -485 c3 -13 16 -68 28 -122 l24 -99 22 84 c43 161 43 160 65
157 17 -3 25 -20 46 -110 14 -59 28 -110 31 -112 3 -3 16 38 28 92 27 111 36
132 56 132 20 0 19 -20 -5 -101 -65 -224 -60 -210 -83 -207 -19 3 -25 17 -46
111 -14 59 -27 107 -31 107 -3 0 -19 -49 -35 -110 -26 -97 -32 -110 -51 -110
-19 0 -25 14 -58 145 -20 79 -36 149 -36 155 0 21 40 10 45 -12z m450 0 c3
-13 16 -68 29 -123 l23 -100 12 45 c56 208 53 201 75 198 17 -3 25 -20 48
-113 15 -60 27 -112 28 -115 1 -3 15 44 30 103 33 121 35 127 56 127 19 0 18
-17 -12 -123 -49 -177 -54 -188 -77 -185 -17 3 -24 20 -48 118 -14 63 -29 108
-32 100 -3 -8 -18 -61 -33 -117 -24 -91 -29 -103 -49 -103 -19 0 -25 14 -58
144 -20 79 -37 149 -37 155 0 21 40 11 45 -11z m454 -15 c6 -21 19 -76 29
-123 l19 -85 12 45 c7 25 22 80 33 123 19 68 24 78 42 75 18 -3 25 -20 50
-121 l28 -119 29 112 c33 126 34 130 55 130 21 0 18 -21 -25 -170 -35 -123
-40 -135 -61 -135 -21 0 -25 10 -50 115 -15 63 -30 108 -33 100 -3 -8 -18 -61
-33 -117 -23 -90 -30 -103 -48 -103 -19 0 -25 15 -59 148 -20 81 -37 150 -37
155 0 4 9 7 20 7 14 0 22 -10 29 -37z m700 28 c27 -17 6 -36 -38 -32 -72 5
-98 -45 -40 -77 68 -37 93 -58 100 -83 9 -36 -14 -87 -46 -99 -49 -19 -135 -9
-135 16 0 20 14 24 50 14 48 -14 85 6 85 45 0 25 -7 33 -44 52 -61 31 -81 52
-81 85 0 38 16 67 43 78 29 11 88 12 106 1z m196 -13 c3 -13 4 -81 3 -153 -3
-122 -4 -130 -23 -130 -19 0 -20 8 -23 140 -1 76 0 145 2 152 8 21 35 15 41
-9z m161 11 c4 -7 19 -62 33 -123 l27 -111 30 120 c26 103 33 120 51 123 24 4
29 -9 60 -150 17 -81 26 -90 37 -36 4 18 16 68 27 111 17 61 25 77 40 77 25 0
24 -4 -10 -124 -16 -55 -35 -120 -41 -143 -9 -35 -15 -43 -33 -43 -21 0 -25
10 -46 98 -12 53 -25 106 -28 117 -4 13 -17 -21 -37 -95 -27 -99 -34 -115 -53
-118 -24 -4 -20 -14 -67 175 -15 56 -26 109 -26 117 0 18 25 21 36 5z m659
-106 l70 -111 3 115 c2 102 5 114 20 111 15 -3 17 -21 20 -156 l3 -152 -23 0
c-19 0 -37 22 -93 115 l-70 115 -3 -115 c-2 -107 -4 -115 -22 -115 -19 0 -20
8 -20 156 0 155 0 155 22 152 17 -2 42 -34 93 -115z m295 -18 l0 -135 65 0
c58 0 65 -2 65 -20 0 -18 -7 -20 -85 -20 l-85 0 0 148 c0 82 3 152 7 155 3 4
12 7 20 7 10 0 13 -29 13 -135z m-1590 -130 c17 -20 5 -45 -20 -45 -11 0 -23
7 -26 15 -6 15 11 45 26 45 4 0 13 -7 20 -15z m1080 0 c17 -20 5 -45 -20 -45
-11 0 -23 7 -26 15 -6 15 11 45 26 45 4 0 13 -7 20 -15z"/>
<path d="M1755 6684 c-420 -37 -733 -299 -832 -699 -26 -106 -23 -344 5 -449
22 -80 71 -180 120 -244 73 -96 326 -276 622 -443 229 -129 322 -192 412 -281
134 -131 190 -290 155 -435 -35 -139 -113 -250 -210 -297 -96 -47 -169 -60
-332 -60 -171 -1 -246 15 -392 84 -125 58 -237 134 -385 258 -17 14 -18 3 -18
-214 l0 -229 91 -58 c178 -115 371 -193 539 -218 116 -17 360 -6 466 20 162
40 290 109 403 215 206 196 289 517 211 821 -68 267 -271 488 -635 691 -306
171 -356 200 -446 260 -53 35 -117 83 -142 108 -158 153 -149 423 19 606 111
119 226 170 404 177 229 10 415 -63 638 -249 l92 -78 0 229 0 230 -85 51
c-241 146 -501 221 -700 204z"/>
<path d="M6831 3398 c-25 -17 -40 -38 -54 -78 -58 -167 82 -316 201 -215 49
41 68 158 38 228 -33 79 -120 110 -185 65z"/>
<path d="M4913 3413 c-9 -3 -13 -29 -13 -79 l0 -74 40 0 c79 0 122 43 106 106
-10 38 -88 66 -133 47z"/>
<path d="M5843 3305 l-31 -95 63 0 63 0 -27 83 c-16 45 -30 88 -32 95 -2 7
-18 -30 -36 -83z"/>
<path d="M7847 3390 c-3 -8 -15 -46 -28 -85 -12 -38 -24 -76 -27 -82 -3 -10
12 -13 57 -13 34 0 61 3 61 8 -1 24 -59 184 -63 172z"/>
<path d="M1040 2705 l0 -75 49 0 c65 0 95 24 95 75 0 51 -30 75 -95 75 l-49 0
0 -75z"/>
<path d="M4570 2705 l0 -75 50 0 c62 0 90 23 90 75 0 52 -28 75 -90 75 l-50 0
0 -75z"/>
<path d="M5350 2695 l0 -85 38 0 c20 0 52 9 70 20 28 17 32 25 32 62 0 24 -4
48 -8 54 -13 20 -50 34 -91 34 l-41 0 0 -85z"/>
<path d="M5750 2705 l0 -75 44 0 c60 0 76 8 91 43 15 36 3 82 -25 97 -10 6
-39 10 -64 10 l-46 0 0 -75z"/>
<path d="M6198 2762 c-58 -35 -84 -147 -54 -227 48 -124 183 -130 237 -11 34
74 19 175 -34 227 -23 24 -37 29 -75 29 -26 0 -59 -8 -74 -18z"/>
</g>
</svg>
